<?xml version="1.0" encoding="utf-8"?>
<!-- Generator: Adobe Illustrator 21.1.0, SVG Export Plug-In . SVG Version: 6.00 Build 0)  -->
<svg version="1.1" id="Layer_1" xmlns="http://www.w3.org/2000/svg" xmlns:xlink="http://www.w3.org/1999/xlink" x="0px" y="0px"
	 viewBox="0 0 327.5 101.7" style="enable-background:new 0 0 327.5 101.7;" xml:space="preserve">
<style type="text/css">
	.st0{fill:#231F20;}
	.st1{fill:#27AAE1;}
	.st2{fill:#FFF200;}
	.st3{fill:#EC008C;}
	.st4{fill:#F15A29;}
	.st5{fill:#FFFFFF;}
	.st6{fill:#643DA4;}
	.st7{fill:#00AEEF;}
	.st8{fill:#414042;}
	.st9{fill:#6D6E71;}
	.st10{fill:#1B75BC;}
	.st11{fill:none;stroke:#00AEEF;stroke-width:2;stroke-miterlimit:10;}
	.st12{fill:url(#SVGID_1_);}
	.st13{fill:#18FFFF;}
	.st14{fill:#12BFBF;}
</style>
<ellipse class="st5" cx="54" cy="50.3" rx="38.7" ry="35.7"/>
<path class="st14" d="M51.7,5C26.8,5,6.8,25.2,6.8,49.9S26.8,95,51.7,95s44.9-20.2,44.9-44.9S76.6,5,51.7,5z M37.7,34
	c0-2.1,1.7-4,4-4h26c2.1,0,4,1.7,4,4v2.1c0,2.1-1.7,4-4,4H41.5c-2.1,0-4-1.7-4-4V34H37.7z M34.1,67.2c0,2.1-1.7,4-4,4h-2.1
	c-2.1,0-4-1.7-4-4V65c0-2.1,1.7-4,4-4H30c2.1,0,4,1.7,4,4V67.2z M34.1,51.6c0,2.1-1.7,4-4,4h-2.1c-2.1,0-4-1.7-4-4v-2.1
	c0-2.1,1.7-4,4-4H30c2.1,0,4,1.7,4,4V51.6z M34.1,36.1c0,2.1-1.7,4-4,4h-2.1c-2.1,0-4-1.7-4-4V34c0-2.1,1.7-4,4-4H30
	c2.1,0,4,1.7,4,4V36.1z M79,67.2c0,2.1-1.7,4-4,4H41.5c-2.1,0-4-1.7-4-4V65c0-2.1,1.7-4,4-4h33.6c2.1,0,4,1.7,4,4v2.1H79z
	 M80.9,55.5H41.5c-2.1,0-4-1.7-4-4v-2.1c0-2.1,1.7-4,4-4h39.4c2.1,0,4,1.7,4,4v2.1C84.9,53.8,83,55.5,80.9,55.5z"/>
<g>
	<path class="st5" d="M149.4,70.1l-0.7,9.2c-1.6,0.2-3.2,0.3-4.9,0.3c-6.2,0-10.8-1.4-13.7-4.1c-2.9-2.7-4.3-6.9-4.3-12.5V47.3h-7.8
		v-9.5h7.8V25.8h12.6v12.1h10.3v9.5h-10.3V63c0,4.9,2.3,7.4,6.9,7.4C146.7,70.4,148,70.3,149.4,70.1z"/>
	<path class="st5" d="M163.3,77c-3.3-1.8-5.8-4.2-7.6-7.4c-1.8-3.2-2.7-7-2.7-11.3c0-4.4,0.9-8.1,2.7-11.3c1.8-3.2,4.3-5.7,7.6-7.4
		c3.3-1.7,7.1-2.6,11.5-2.6c4.4,0,8.2,0.9,11.5,2.6c3.3,1.7,5.8,4.2,7.6,7.4c1.8,3.2,2.7,7,2.7,11.3c0,4.4-0.9,8.1-2.7,11.3
		c-1.8,3.2-4.3,5.7-7.6,7.4c-3.3,1.8-7.1,2.6-11.5,2.6C170.4,79.6,166.6,78.8,163.3,77z M184,58.2c0-4-0.8-6.9-2.4-8.9
		c-1.6-2-3.9-2.9-6.8-2.9c-6.1,0-9.2,3.9-9.2,11.8c0,7.9,3.1,11.8,9.2,11.8C180.9,70,184,66.1,184,58.2z"/>
	<path class="st5" d="M204.2,79V20h12.6v59H204.2z"/>
	<path class="st5" d="M226.2,18.1h13.6v11.8h-13.6V18.1z M226.6,79V37.9h12.6V79H226.6z"/>
	<path class="st5" d="M254.3,78.4c-3.2-0.9-5.9-2.1-8.2-3.7l3.3-8.7c2.2,1.5,4.7,2.7,7.4,3.5c2.7,0.8,5.4,1.3,8.1,1.3
		c2,0,3.5-0.3,4.6-1c1.1-0.6,1.6-1.5,1.6-2.6c0-1-0.4-1.8-1.1-2.3c-0.8-0.6-2.2-1.1-4.2-1.5l-6.7-1.5c-4-0.9-6.9-2.3-8.7-4.1
		c-1.9-1.9-2.8-4.4-2.8-7.7c0-2.6,0.7-4.8,2.2-6.8c1.5-2,3.6-3.5,6.3-4.6c2.7-1.1,5.8-1.7,9.2-1.7c3,0,5.8,0.4,8.6,1.3
		c2.8,0.9,5.3,2.1,7.5,3.8l-3.3,8.4c-4.4-3-8.6-4.5-12.9-4.5c-2,0-3.5,0.3-4.6,1s-1.7,1.6-1.7,2.8c0,0.9,0.3,1.6,1,2.1
		c0.7,0.5,1.8,1,3.5,1.4l6.9,1.6c4.2,0.9,7.2,2.4,9.2,4.3c1.9,1.9,2.9,4.5,2.9,7.8c0,4-1.6,7.1-4.7,9.3c-3.2,2.3-7.5,3.4-13,3.4
		C260.9,79.6,257.5,79.2,254.3,78.4z"/>
	<path class="st5" d="M316,70.1l-0.7,9.2c-1.6,0.2-3.2,0.3-4.9,0.3c-6.2,0-10.8-1.4-13.7-4.1c-2.9-2.7-4.3-6.9-4.3-12.5V47.3h-7.8
		v-9.5h7.8V25.8h12.6v12.1h10.3v9.5h-10.3V63c0,4.9,2.3,7.4,6.9,7.4C313.3,70.4,314.7,70.3,316,70.1z"/>
</g>
</svg>
