<?xml version="1.0" encoding="utf-8"?>
<!-- Generator: Adobe Illustrator 21.1.0, SVG Export Plug-In . SVG Version: 6.00 Build 0)  -->
<svg version="1.1" id="Layer_1" xmlns="http://www.w3.org/2000/svg" xmlns:xlink="http://www.w3.org/1999/xlink" x="0px" y="0px"
	 viewBox="0 0 201.5 62.3" style="enable-background:new 0 0 201.5 62.3;" xml:space="preserve">
<style type="text/css">
	.st0{fill:#231F20;}
	.st1{fill:#18FFFF;}
	.st2{fill:#27AAE1;}
	.st3{fill:#FFF200;}
	.st4{fill:#EC008C;}
	.st5{fill:#F15A29;}
	.st6{fill:#FFFFFF;}
	.st7{fill:#643DA4;}
	.st8{fill:#00AEEF;}
	.st9{fill:#414042;}
	.st10{fill:#6D6E71;}
	.st11{fill:#1B75BC;}
	.st12{fill:none;stroke:#00AEEF;stroke-width:2;stroke-miterlimit:10;}
	.st13{fill:url(#SVGID_1_);}
	.st14{fill:#ED1C24;}
</style>
<g>
	<path class="st6" d="M67.8,30.6h-3.6v-4l3.9-1.2V20l7.2-1.3v6.8h6.7v5.2h-6.7v9.1c0,2.1,0.7,2.9,2.1,2.9c0.8,0,2.2-0.5,4.1-1.8
		l2.1,5.3c0,0-3.5,2.6-8,2.6c-4.6,0-7.7-2.5-7.7-7.1V30.6z"/>
	<path class="st6" d="M98,24.8c8.9,0,12.8,5.7,12.8,11.5c0,5.3-3.3,12.3-12.9,12.3c-8.6,0-12.6-5.7-12.6-11.8
		C85.3,31.1,88.7,24.8,98,24.8z M98,43.3c2.9,0,5.2-2.6,5.2-6.4c0-3.2-1.7-6.8-5.1-6.8c-2.8,0-5.1,2.5-5.1,6.3
		C92.9,39.8,94.7,43.3,98,43.3z"/>
	<path class="st6" d="M121.8,13.7l7.5-1.2V48h-7.5V13.7z"/>
	<path class="st6" d="M134.4,17c0-2.4,1.7-3.9,4.1-3.9c2.5,0,4.2,1.5,4.2,3.9s-1.7,3.9-4.2,3.9C136.1,20.9,134.4,19.4,134.4,17z
		 M134.8,25.4h7.5V48h-7.5V25.4z"/>
	<path class="st6" d="M147.9,40.6c0,0,2.6,2.4,6.7,2.4c1.9,0,2.7-0.6,2.7-1.4c0-2.5-10.3-2.3-10.3-9.5c0-3.6,2.7-7.3,10.1-7.3
		c4.2,0,6.8,1.2,6.8,1.2l-1.4,6c0,0-2.3-1.7-5.7-1.7c-1.8,0-2.5,0.5-2.5,1.3c0,2.6,10.3,2.4,10.3,9.5c0,4.1-3.5,7.4-10.1,7.4
		c-5.1,0-8.2-2-8.2-2L147.9,40.6z"/>
	<path class="st6" d="M170.4,30.6h-3.6v-4l3.9-1.2V20l7.2-1.3v6.8h6.7v5.2h-6.7v9.1c0,2.1,0.7,2.9,2.1,2.9c0.8,0,2.2-0.5,4.1-1.8
		l2.1,5.3c0,0-3.5,2.6-8,2.6c-4.6,0-7.7-2.5-7.7-7.1V30.6z"/>
</g>
<path class="st1" d="M32.5,9.7c-11.7,0-21.1,9.5-21.1,21.1S20.8,52,32.5,52s21.1-9.5,21.1-21.1S44.2,9.7,32.5,9.7z M25.9,23.3
	c0-1,0.8-1.9,1.9-1.9h12.2c1,0,1.9,0.8,1.9,1.9v1c0,1-0.8,1.9-1.9,1.9H27.7c-1,0-1.9-0.8-1.9-1.9V23.3z M24.2,38.9
	c0,1-0.8,1.9-1.9,1.9h-1c-1,0-1.9-0.8-1.9-1.9v-1c0-1,0.8-1.9,1.9-1.9h1c1,0,1.9,0.8,1.9,1.9V38.9z M24.2,31.6c0,1-0.8,1.9-1.9,1.9
	h-1c-1,0-1.9-0.8-1.9-1.9v-1c0-1,0.8-1.9,1.9-1.9h1c1,0,1.9,0.8,1.9,1.9V31.6z M24.2,24.3c0,1-0.8,1.9-1.9,1.9h-1
	c-1,0-1.9-0.8-1.9-1.9v-1c0-1,0.8-1.9,1.9-1.9h1c1,0,1.9,0.8,1.9,1.9V24.3z M45.3,38.9c0,1-0.8,1.9-1.9,1.9H27.7
	c-1,0-1.9-0.8-1.9-1.9v-1c0-1,0.8-1.9,1.9-1.9h15.8c1,0,1.9,0.8,1.9,1.9V38.9z M46.2,33.4H27.7c-1,0-1.9-0.8-1.9-1.9v-1
	c0-1,0.8-1.9,1.9-1.9h18.5c1,0,1.9,0.8,1.9,1.9v1C48.1,32.6,47.2,33.4,46.2,33.4z"/>
</svg>
