<?xml version="1.0" encoding="utf-8"?>
<!-- Generator: Adobe Illustrator 21.1.0, SVG Export Plug-In . SVG Version: 6.00 Build 0)  -->
<svg version="1.1" id="Layer_1" xmlns="http://www.w3.org/2000/svg" xmlns:xlink="http://www.w3.org/1999/xlink" x="0px" y="0px"
	 viewBox="0 0 89.5 89.2" style="enable-background:new 0 0 89.5 89.2;" xml:space="preserve">
<style type="text/css">
	.st0{fill:#231F20;}
	.st1{fill:#18FFFF;}
	.st2{fill:#27AAE1;}
	.st3{fill:#FFF200;}
	.st4{fill:#EC008C;}
	.st5{fill:#F15A29;}
	.st6{fill:#FFFFFF;}
	.st7{fill:#643DA4;}
	.st8{fill:#00AEEF;}
	.st9{fill:#414042;}
	.st10{fill:#6D6E71;}
	.st11{fill:#1B75BC;}
	.st12{fill:none;stroke:#00AEEF;stroke-width:2;stroke-miterlimit:10;}
	.st13{fill:url(#SVGID_1_);}
	.st14{fill:#ED1C24;}
</style>
<path class="st1" d="M44.5,10.2c-18.3,0-33.2,14.9-33.2,33.2s14.9,33.2,33.2,33.2s33.2-14.9,33.2-33.2S62.9,10.2,44.5,10.2z
	 M34.1,30.4c0-1,0.8-1.9,1.9-1.9h21.2c1,0,1.9,0.8,1.9,1.9v3.6c0,1-0.8,1.9-1.9,1.9H36c-1,0-1.9-0.8-1.9-1.9V30.4z M31.5,57
	c0,1-0.8,1.9-1.9,1.9h-3.7c-1,0-1.9-0.8-1.9-1.9v-3.6c0-1,0.8-1.9,1.9-1.9h3.7c1,0,1.9,0.8,1.9,1.9V57z M31.5,45.5
	c0,1-0.8,1.9-1.9,1.9h-3.7c-1,0-1.9-0.8-1.9-1.9v-3.6c0-1,0.8-1.9,1.9-1.9h3.7c1,0,1.9,0.8,1.9,1.9V45.5z M31.5,34.1
	c0,1-0.8,1.9-1.9,1.9h-3.7c-1,0-1.9-0.8-1.9-1.9v-3.6c0-1,0.8-1.9,1.9-1.9h3.7c1,0,1.9,0.8,1.9,1.9V34.1z M64.7,57
	c0,1-0.8,1.9-1.9,1.9H36c-1,0-1.9-0.8-1.9-1.9v-3.6c0-1,0.8-1.9,1.9-1.9h26.9c1,0,1.9,0.8,1.9,1.9V57z M67.2,47.4H36
	c-1,0-1.9-0.8-1.9-1.9v-3.6c0-1,0.8-1.9,1.9-1.9h31.2c1,0,1.9,0.8,1.9,1.9v3.6C69,46.6,68.2,47.4,67.2,47.4z"/>
</svg>
